HIERARCHY
ROOT Hips
{
  OFFSET -1.53133 91.7847 0.210903
  CHANNELS 6 Xposition Yposition Zposition Zrotation Xrotation Yrotation
  JOINT Spine
  {
    OFFSET 0 9.9235 -1.2273
    CHANNELS 6 Xposition Yposition Zposition Zrotation Xrotation Yrotation
    JOINT Spine1
    {
      OFFSET -0.0001 11.6454 -1.4223
      CHANNELS 6 Xposition Yposition Zposition Zrotation Xrotation Yrotation
      JOINT Spine2
      {
        OFFSET 0.0001 13.3602 -1.6265
        CHANNELS 6 Xposition Yposition Zposition Zrotation Xrotation Yrotation
        JOINT Neck
        {
          OFFSET 0 15.0325 0.7929
          CHANNELS 6 Xposition Yposition Zposition Zrotation Xrotation Yrotation
          JOINT Head
          {
            OFFSET 0 10.3218 3.1424
            CHANNELS 6 Xposition Yposition Zposition Zrotation Xrotation Yrotation
            JOINT HeadTop_End
            {
              OFFSET 0.0002 18.4747 6.6364
              CHANNELS 6 Xposition Yposition Zposition Zrotation Xrotation Yrotation
              End Site
              {
                OFFSET 0 0 0
              }
            }
            JOINT LeftEye
            {
              OFFSET 2.9479 7.6817 9.1207
              CHANNELS 6 Xposition Yposition Zposition Zrotation Xrotation Yrotation
              End Site
              {
                OFFSET 0 0 0
              }
            }
            JOINT RightEye
            {
              OFFSET -2.9445 7.6817 9.1205
              CHANNELS 6 Xposition Yposition Zposition Zrotation Xrotation Yrotation
              End Site
              {
                OFFSET 0 0 0
              }
            }
          }
        }
        JOINT LeftShoulder
        {
          OFFSET 6.1058 9.1104 0.7056
          CHANNELS 6 Xposition Yposition Zposition Zrotation Xrotation Yrotation
          JOINT LeftArm
          {
            OFFSET 12.655 -0.2659 -2.6009
            CHANNELS 6 Xposition Yposition Zposition Zrotation Xrotation Yrotation
            JOINT LeftForeArm
            {
              OFFSET 27.4047 0 0
              CHANNELS 6 Xposition Yposition Zposition Zrotation Xrotation Yrotation
              JOINT LeftHand
              {
                OFFSET 27.6145 0 0
                CHANNELS 6 Xposition Yposition Zposition Zrotation Xrotation Yrotation
                JOINT LeftHandMiddle1
                {
                  OFFSET 12.7755 0 0
                  CHANNELS 6 Xposition Yposition Zposition Zrotation Xrotation Yrotation
                  JOINT LeftHandMiddle2
                  {
                    OFFSET 3.614 0 0
                    CHANNELS 6 Xposition Yposition Zposition Zrotation Xrotation Yrotation
                    JOINT LeftHandMiddle3
                    {
                      OFFSET 3.4598 0 0
                      CHANNELS 6 Xposition Yposition Zposition Zrotation Xrotation Yrotation
                      End Site
                      {
                        OFFSET 3.6802 0 0
                      }
                    }
                  }
                }
                JOINT LeftHandThumb1
                {
                  OFFSET 3.7888 -2.167 3.0031
                  CHANNELS 6 Xposition Yposition Zposition Zrotation Xrotation Yrotation
                  JOINT LeftHandThumb2
                  {
                    OFFSET 3.6754 -2.122 2.122
                    CHANNELS 6 Xposition Yposition Zposition Zrotation Xrotation Yrotation
                    JOINT LeftHandThumb3
                    {
                      OFFSET 3.3944 -1.9597 1.9598
                      CHANNELS 6 Xposition Yposition Zposition Zrotation Xrotation Yrotation
                      End Site
                      {
                        OFFSET 2.6794 -1.5469 1.5469
                      }
                    }
                  }
                }
                JOINT LeftHandIndex1
                {
                  OFFSET 12.2666 -0.2317 2.8221
                  CHANNELS 6 Xposition Yposition Zposition Zrotation Xrotation Yrotation
                  JOINT LeftHandIndex2
                  {
                    OFFSET 3.892 0 0
                    CHANNELS 6 Xposition Yposition Zposition Zrotation Xrotation Yrotation
                    JOINT LeftHandIndex3
                    {
                      OFFSET 3.4152 0 0
                      CHANNELS 6 Xposition Yposition Zposition Zrotation Xrotation Yrotation
                      End Site
                      {
                        OFFSET 3.078 0 0
                      }
                    }
                  }
                }
                JOINT LeftHandRing1
                {
                  OFFSET 12.147 0.0099 -2.2166
                  CHANNELS 6 Xposition Yposition Zposition Zrotation Xrotation Yrotation
                  JOINT LeftHandRing2
                  {
                    OFFSET 3.6012 0 0
                    CHANNELS 6 Xposition Yposition Zposition Zrotation Xrotation Yrotation
                    JOINT LeftHandRing3
                    {
                      OFFSET 3.3073 0 0
                      CHANNELS 6 Xposition Yposition Zposition Zrotation Xrotation Yrotation
                      End Site
                      {
                        OFFSET 3.6601 0 0
                      }
                    }
                  }
                }
                JOINT LeftHandPinky1
                {
                  OFFSET 10.9082 -0.2264 -4.7258
                  CHANNELS 6 Xposition Yposition Zposition Zrotation Xrotation Yrotation
                  JOINT LeftHandPinky2
                  {
                    OFFSET 4.1367 0 0
                    CHANNELS 6 Xposition Yposition Zposition Zrotation Xrotation Yrotation
                    JOINT LeftHandPinky3
                    {
                      OFFSET 2.5948 0 0
                      CHANNELS 6 Xposition Yposition Zposition Zrotation Xrotation Yrotation
                      End Site
                      {
                        OFFSET 2.9239 0 0
                      }
                    }
                  }
                }
              }
            }
          }
        }
        JOINT RightShoulder
        {
          OFFSET -6.1057 9.1105 0.7056
          CHANNELS 6 Xposition Yposition Zposition Zrotation Xrotation Yrotation
          JOINT RightArm
          {
            OFFSET -12.655 -0.266 -2.6009
            CHANNELS 6 Xposition Yposition Zposition Zrotation Xrotation Yrotation
            JOINT RightForeArm
            {
              OFFSET -27.4047 0 0
              CHANNELS 6 Xposition Yposition Zposition Zrotation Xrotation Yrotation
              JOINT RightHand
              {
                OFFSET -27.6145 0 0
                CHANNELS 6 Xposition Yposition Zposition Zrotation Xrotation Yrotation
                JOINT RightHandMiddle1
                {
                  OFFSET -12.7755 0 0
                  CHANNELS 6 Xposition Yposition Zposition Zrotation Xrotation Yrotation
                  JOINT RightHandMiddle2
                  {
                    OFFSET -3.614 0 0
                    CHANNELS 6 Xposition Yposition Zposition Zrotation Xrotation Yrotation
                    JOINT RightHandMiddle3
                    {
                      OFFSET -3.4598 0 0
                      CHANNELS 6 Xposition Yposition Zposition Zrotation Xrotation Yrotation
                      End Site
                      {
                        OFFSET -3.6802 0 0
                      }
                    }
                  }
                }
                JOINT RightHandThumb1
                {
                  OFFSET -3.7888 -2.167 3.0031
                  CHANNELS 6 Xposition Yposition Zposition Zrotation Xrotation Yrotation
                  JOINT RightHandThumb2
                  {
                    OFFSET -3.6754 -2.122 2.122
                    CHANNELS 6 Xposition Yposition Zposition Zrotation Xrotation Yrotation
                    JOINT RightHandThumb3
                    {
                      OFFSET -3.3944 -1.9597 1.9598
                      CHANNELS 6 Xposition Yposition Zposition Zrotation Xrotation Yrotation
                      End Site
                      {
                        OFFSET -2.6794 -1.5469 1.5469
                      }
                    }
                  }
                }
                JOINT RightHandIndex1
                {
                  OFFSET -12.2666 -0.2317 2.8221
                  CHANNELS 6 Xposition Yposition Zposition Zrotation Xrotation Yrotation
                  JOINT RightHandIndex2
                  {
                    OFFSET -3.892 0 0
                    CHANNELS 6 Xposition Yposition Zposition Zrotation Xrotation Yrotation
                    JOINT RightHandIndex3
                    {
                      OFFSET -3.4152 0 0
                      CHANNELS 6 Xposition Yposition Zposition Zrotation Xrotation Yrotation
                      End Site
                      {
                        OFFSET -3.078 0 0
                      }
                    }
                  }
                }
                JOINT RightHandRing1
                {
                  OFFSET -12.147 0.0099 -2.2166
                  CHANNELS 6 Xposition Yposition Zposition Zrotation Xrotation Yrotation
                  JOINT RightHandRing2
                  {
                    OFFSET -3.6012 0 0
                    CHANNELS 6 Xposition Yposition Zposition Zrotation Xrotation Yrotation
                    JOINT RightHandRing3
                    {
                      OFFSET -3.3073 0 0
                      CHANNELS 6 Xposition Yposition Zposition Zrotation Xrotation Yrotation
                      End Site
                      {
                        OFFSET -3.6601 0 0
                      }
                    }
                  }
                }
                JOINT RightHandPinky1
                {
                  OFFSET -10.9082 -0.2264 -4.7258
                  CHANNELS 6 Xposition Yposition Zposition Zrotation Xrotation Yrotation
                  JOINT RightHandPinky2
                  {
                    OFFSET -4.1367 0 0
                    CHANNELS 6 Xposition Yposition Zposition Zrotation Xrotation Yrotation
                    JOINT RightHandPinky3
                    {
                      OFFSET -2.5948 0 0
                      CHANNELS 6 Xposition Yposition Zposition Zrotation Xrotation Yrotation
                      End Site
                      {
                        OFFSET -2.9239 0 0
                      }
                    }
                  }
                }
              }
            }
          }
        }
      }
    }
  }
  JOINT RightUpLeg
  {
    OFFSET -9.1245 -6.6564 -0.0554
    CHANNELS 6 Xposition Yposition Zposition Zrotation Xrotation Yrotation
    JOINT RightLeg
    {
      OFFSET -0.2447 -40.5954 -0.5145
      CHANNELS 6 Xposition Yposition Zposition Zrotation Xrotation Yrotation
      JOINT RightFoot
      {
        OFFSET 0.2447 -42.0479 -2.0602
        CHANNELS 6 Xposition Yposition Zposition Zrotation Xrotation Yrotation
        JOINT RightToeBase
        {
          OFFSET -0.3734 -10.4922 12.6407
          CHANNELS 6 Xposition Yposition Zposition Zrotation Xrotation Yrotation
          End Site
          {
            OFFSET 0 0 9.9925
          }
        }
      }
    }
  }
  JOINT LeftUpLeg
  {
    OFFSET 9.1245 -6.6564 -0.0554
    CHANNELS 6 Xposition Yposition Zposition Zrotation Xrotation Yrotation
    JOINT LeftLeg
    {
      OFFSET 0.2447 -40.5954 -0.517
      CHANNELS 6 Xposition Yposition Zposition Zrotation Xrotation Yrotation
      JOINT LeftFoot
      {
        OFFSET -0.2447 -42.048 -2.0576
        CHANNELS 6 Xposition Yposition Zposition Zrotation Xrotation Yrotation
        JOINT LeftToeBase
        {
          OFFSET 0.3734 -10.4922 12.6407
          CHANNELS 6 Xposition Yposition Zposition Zrotation Xrotation Yrotation
          End Site
          {
            OFFSET 0 0 9.9925
          }
        }
      }
    }
  }
}
MOTION
Frames:	4
Frame Time:	0.0166667
-1.53133 91.7847 0.210903 -1.9765 11.5249 2.17728 0 9.9235 -1.2273 -1.23237 3.00741 -0.705225 -0.0001 11.6454 -1.4223 -0.886832 6.19767 -1.62132 0.0001 13.3602 -1.6265 -0.881569 6.19342 -1.64006 0 15.0325 0.7929 1.79205 -3.61906 1.14889 0 10.3218 3.1424 7.14445 -11.1022 0.891544 0.0002 18.4747 6.6364 -1.98785e-016 3.18055e-015 -0 2.9479 7.6817 9.1207 -1.98785e-016 3.18055e-015 -0 -2.9445 7.6817 9.1205 -1.98785e-016 3.18055e-015 -0 6.1058 9.1104 0.7056 -9.96324 0.280204 1.8869 12.655 -0.2659 -2.6009 6.45446 32.4859 -92.4327 27.4047 0 -1.77636e-015 -3.07331e-005 -3.62013e-006 -96.8127 27.6145 0 -1.42109e-014 -25.5409 -36.3335 1.55262 12.7755 0 0 -30.3248 -0.946513 3.49177 3.614 0 1.42109e-014 -22.0628 -0.506364 2.59698 3.4598 -3.55271e-015 0 -11.0262 -0.1276 1.32196 3.7888 -2.167 3.0031 12.1976 -9.59293 4.00117 3.6754 -2.122 2.122 4.0543 -1.74021 25.8581 3.3944 -1.9597 1.9598 3.91277 -3.24006 10.8018 12.2666 -0.2317 2.8221 -30.3408 -0.947491 3.49343 3.892 -3.55271e-015 0 -22.0468 -0.505629 2.59521 3.4152 0 -2.84217e-014 -11.0262 -0.12761 1.32196 12.147 0.0099 -2.2166 -30.3408 -0.947491 3.49343 3.6012 3.55271e-015 0 -22.0468 -0.505629 2.59521 3.3073 3.55271e-015 -1.42109e-014 -11.0262 -0.12761 1.32196 10.9082 -0.2264 -4.7258 -29.8332 -0.898399 7.55596 4.1367 -7.10543e-015 1.42109e-014 -22.5398 1.03291 -1.15601 2.5948 -3.55271e-015 0 -11.0262 -0.127596 1.32196 -6.1057 9.1105 0.7056 11.5379 0.197604 -2.52091 -12.655 -0.266 -2.6009 37.6145 42.9781 49.665 -27.4047 0 -3.55271e-015 2.4783e-007 -2.8441e-006 11.749 -27.6145 -7.10543e-015 1.77636e-015 5.19728 -13.747 4.40485 -12.7755 0 0 1.28339e-006 -5.93743e-007 -3.30325e-006 -3.614 0 0 2.78418e-005 -3.51962e-007 -1.40853e-005 -3.4598 0 0 1.46105e-005 -1.98612e-006 9.04626e-006 -3.7888 -2.167 3.0031 -17.8481 3.10914 -5.87485 -3.6754 -2.122 2.122 -1.02094 6.21607 -21.8032 -3.3944 -1.9597 1.9598 -2.77734 -0.353712 -6.50639 -12.2666 -0.2317 2.8221 1.28339e-006 -5.93743e-007 -3.30325e-006 -3.892 3.55271e-015 0 1.15472e-006 4.69151e-006 -4.37256e-006 -3.4152 0 0 3.1763e-006 -5.68108e-006 -2.91377e-006 -12.147 0.0099 -2.2166 1.28339e-006 -5.93743e-007 -3.30325e-006 -3.6012 0 1.77636e-015 1.20609e-005 -3.51661e-007 -8.17393e-006 -3.3073 0 0 -3.38407e-006 -5.42504e-006 -8.15613e-006 -10.9082 -0.2264 -4.7258 1.28339e-006 -5.93743e-007 -3.30325e-006 -4.1367 3.55271e-015 1.77636e-015 1.15472e-006 4.69151e-006 -4.37256e-006 -2.5948 0 0 3.1763e-006 -5.68108e-006 -2.91377e-006 -9.1245 -6.6564 -0.0554 4.6049 -50.1745 -0.0369334 -0.2447 -40.5954 -0.5145 -0.541829 26.416 -8.09033 0.2447 -42.0479 -2.0602 -4.84049 -8.33301 -1.73293 -0.3734 -10.4922 12.6407 1.45139e-006 0.0164995 9.64974e-006 9.1245 -6.6564 -0.0554 6.37685 0.89517 14.6169 0.2447 -40.5954 -0.517 -0.606318 32.0122 -9.12798 -0.2447 -42.048 -2.0576 6.01841 -4.34356 -1.82658 0.3734 -10.4922 12.6407 -5.08396 -36.5797 -2.58767 
-1.95632 91.3342 3.26248 -2.77079 10.9821 2.85419 0 9.9235 -1.2273 -0.8185 3.13974 -0.61979 -0.0001 11.6454 -1.4223 -0.621903 6.37436 -1.65056 0.0001 13.3602 -1.6265 -0.619042 6.37099 -1.66502 0 15.0325 0.7929 1.95994 -3.56423 1.06248 -8.88178e-016 10.3218 3.1424 7.06839 -11.0462 0.621362 0.0002 18.4747 6.6364 -1.09332e-015 0 3.97569e-016 2.9479 7.6817 9.1207 -1.09332e-015 0 3.97569e-016 -2.9445 7.6817 9.1205 -1.09332e-015 0 3.97569e-016 6.1058 9.1104 0.7056 -9.94019 0.30835 1.7193 12.655 -0.2659 -2.6009 6.41675 32.3641 -92.2012 27.4047 -1.42109e-014 2.66454e-015 7.57435e-005 -9.14774e-006 -96.8864 27.6145 0 0 -25.4658 -36.3984 1.35177 12.7755 0 -1.42109e-014 -30.3248 -0.946513 3.49177 3.614 0 -2.84217e-014 -22.0628 -0.506349 2.59698 3.4598 3.55271e-015 0 -11.0262 -0.127633 1.32197 3.7888 -2.167 3.0031 12.1976 -9.59293 4.00117 3.6754 -2.122 2.122 4.0543 -1.74021 25.8581 3.3944 -1.9597 1.9598 3.91277 -3.24006 10.8018 12.2666 -0.2317 2.8221 -30.3408 -0.947491 3.49343 3.892 0 0 -22.0468 -0.505647 2.5952 3.4152 -3.55271e-015 -1.42109e-014 -11.0262 -0.127618 1.32198 12.147 0.0099 -2.2166 -30.3408 -0.947491 3.49343 3.6012 0 0 -22.0468 -0.505647 2.5952 3.3073 3.55271e-015 1.42109e-014 -11.0262 -0.127618 1.32198 10.9082 -0.2264 -4.7258 -29.8332 -0.898399 7.55596 4.1367 0 0 -22.5398 1.03291 -1.15602 2.5948 -7.10543e-015 0 -11.0262 -0.127613 1.32198 -6.1057 9.1105 0.7056 11.6391 0.179937 -2.61818 -12.655 -0.266 -2.6009 37.5163 42.8166 50.2481 -27.4047 -7.10543e-015 0 -1.59785e-005 -3.55327e-006 10.7588 -27.6145 0 -8.88178e-016 5.27414 -13.8442 4.79479 -12.7755 0 0 1.28339e-006 -5.93743e-007 -3.30325e-006 -3.614 0 0 2.78418e-005 -3.51962e-007 -1.40853e-005 -3.4598 0 -3.55271e-015 1.46105e-005 -1.98612e-006 9.04626e-006 -3.7888 -2.167 3.0031 -17.8481 3.10914 -5.87485 -3.6754 -2.122 2.122 -1.02094 6.21607 -21.8032 -3.3944 -1.9597 1.9598 -2.77734 -0.353712 -6.50639 -12.2666 -0.2317 2.8221 1.28339e-006 -5.93743e-007 -3.30325e-006 -3.892 0 3.55271e-015 1.15472e-006 4.69151e-006 -4.37256e-006 -3.4152 0 3.55271e-015 3.1763e-006 -5.68108e-006 -2.91377e-006 -12.147 0.0099 -2.2166 1.28339e-006 -5.93743e-007 -3.30325e-006 -3.6012 0 3.55271e-015 1.20609e-005 -3.51661e-007 -8.17393e-006 -3.3073 7.10543e-015 0 -3.38407e-006 -5.42504e-006 -8.15613e-006 -10.9082 -0.2264 -4.7258 1.28339e-006 -5.93743e-007 -3.30325e-006 -4.1367 0 0 1.15472e-006 4.69151e-006 -4.37256e-006 -2.5948 0 0 3.1763e-006 -5.68108e-006 -2.91377e-006 -9.1245 -6.6564 -0.0554 5.60269 -50.1675 0.733177 -0.2447 -40.5954 -0.5145 -0.610905 29.5127 -9.2315 0.2447 -42.0479 -2.0602 -4.2947 -3.61397 -1.9683 -0.3734 -10.4922 12.6407 -2.57706e-006 -0.0541715 3.10183e-006 9.1245 -6.6564 -0.0554 8.36546 0.722369 14.793 0.2447 -40.5954 -0.517 -0.62836 34.7283 -9.46995 -0.2447 -42.048 -2.0576 5.79907 3.24252 -2.48964 0.3734 -10.4922 12.6407 -5.33172 -45.4071 -3.03848 
-2.3162 90.8644 6.1983 -3.5673 10.4183 3.33512 0 9.9235 -1.2273 -0.41104 3.27219 -0.564699 -0.0001 11.6454 -1.4223 -0.389133 6.56762 -1.62143 0.0001 13.3602 -1.6265 -0.388123 6.56509 -1.63243 0 15.0325 0.7929 2.14401 -3.51425 0.983055 8.88178e-016 10.3218 3.1424 6.9588 -11.0751 0.413772 0.0002 18.4747 6.6364 4.96962e-016 -1.59028e-015 -0 2.9479 7.6817 9.1207 4.96962e-016 -1.59028e-015 -0 -2.9445 7.6817 9.1205 4.96962e-016 -1.59028e-015 -0 6.1058 9.1104 0.7056 -9.93016 0.327096 1.60903 12.655 -0.2659 -2.6009 6.32458 32.2278 -91.9539 27.4047 0 -2.66454e-015 4.59997e-005 3.68493e-006 -96.9353 27.6145 0 -1.42109e-014 -25.4064 -36.4865 1.11766 12.7755 0 -1.42109e-014 -30.3248 -0.946513 3.49177 3.614 0 0 -22.0628 -0.50636 2.59699 3.4598 0 1.42109e-014 -11.0262 -0.127591 1.32198 3.7888 -2.167 3.0031 12.1976 -9.59293 4.00117 3.6754 -2.122 2.122 4.0543 -1.74021 25.8581 3.3944 -1.9597 1.9598 3.91277 -3.24006 10.8018 12.2666 -0.2317 2.8221 -30.3408 -0.947491 3.49343 3.892 -3.55271e-015 0 -22.0468 -0.505643 2.59521 3.4152 0 1.42109e-014 -11.0262 -0.127587 1.32197 12.147 0.0099 -2.2166 -30.3408 -0.947491 3.49343 3.6012 0 1.42109e-014 -22.0468 -0.505643 2.59521 3.3073 0 -1.42109e-014 -11.0262 -0.127587 1.32197 10.9082 -0.2264 -4.7258 -29.8332 -0.898399 7.55596 4.1367 0 0 -22.5397 1.0329 -1.15601 2.5948 0 1.42109e-014 -11.0262 -0.127588 1.32197 -6.1057 9.1105 0.7056 11.6918 0.167043 -2.68704 -12.655 -0.266 -2.6009 37.4598 42.6335 50.7205 -27.4047 0 3.55271e-015 1.20334e-008 6.72174e-008 10.045 -27.6145 -7.10543e-015 0 5.16952 -13.7891 5.10317 -12.7755 0 0 1.28339e-006 -5.93743e-007 -3.30325e-006 -3.614 -7.10543e-015 0 2.78418e-005 -3.51962e-007 -1.40853e-005 -3.4598 0 0 1.46105e-005 -1.98612e-006 9.04626e-006 -3.7888 -2.167 3.0031 -17.8481 3.10914 -5.87485 -3.6754 -2.122 2.122 -1.02094 6.21607 -21.8032 -3.3944 -1.9597 1.9598 -2.77734 -0.353712 -6.50639 -12.2666 -0.2317 2.8221 1.28339e-006 -5.93743e-007 -3.30325e-006 -3.892 0 7.10543e-015 1.15472e-006 4.69151e-006 -4.37256e-006 -3.4152 0 0 3.1763e-006 -5.68108e-006 -2.91377e-006 -12.147 0.0099 -2.2166 1.28339e-006 -5.93743e-007 -3.30325e-006 -3.6012 -7.10543e-015 0 1.20609e-005 -3.51661e-007 -8.17393e-006 -3.3073 0 0 -3.38407e-006 -5.42504e-006 -8.15613e-006 -10.9082 -0.2264 -4.7258 1.28339e-006 -5.93743e-007 -3.30325e-006 -4.1367 7.10543e-015 0 1.15472e-006 4.69151e-006 -4.37256e-006 -2.5948 -7.10543e-015 0 3.1763e-006 -5.68108e-006 -2.91377e-006 -9.1245 -6.6564 -0.0554 6.74501 -49.8345 1.50363 -0.2447 -40.5954 -0.5145 -0.664323 32.3623 -9.62526 0.2447 -42.0479 -2.0602 -3.59871 -0.293059 -2.1582 -0.3734 -10.4922 12.6407 -2.13767e-006 -0.102629 5.43224e-007 9.1245 -6.6564 -0.0554 10.5718 -0.710516 14.3243 0.2447 -40.5954 -0.517 -0.655326 39.6523 -9.33343 -0.2447 -42.048 -2.0576 3.63693 9.17454 -2.59124 0.3734 -10.4922 12.6407 -3.71929 -48.7222 -2.22389 
-2.61333 90.3742 9.04711 -4.37829 9.87119 3.67177 1.77636e-015 9.9235 -1.2273 0.0275805 3.40361 -0.518885 -0.0001 11.6454 -1.4223 -0.180427 6.76683 -1.56194 0.0001 13.3602 -1.6265 -0.180972 6.76514 -1.5696 0 15.0325 0.7929 2.33157 -3.46729 0.910596 8.88178e-016 10.3218 3.1424 6.8338 -11.1375 0.248986 0.0002 18.4747 6.6364 1.10348e-032 1.59028e-015 -3.97569e-016 2.9479 7.6817 9.1207 1.10348e-032 1.59028e-015 -3.97569e-016 -2.9445 7.6817 9.1205 1.10348e-032 1.59028e-015 -3.97569e-016 6.1058 9.1104 0.7056 -9.92887 0.339747 1.53601 12.655 -0.2659 -2.6009 6.2278 32.0826 -91.7208 27.4047 0 -2.66454e-015 7.57312e-005 -9.24958e-006 -96.9634 27.6145 0 -1.42109e-014 -25.3385 -36.5886 0.868681 12.7755 3.55271e-015 -1.42109e-014 -30.3248 -0.946513 3.49177 3.614 0 0 -22.0628 -0.506368 2.59698 3.4598 0 1.42109e-014 -11.0262 -0.127608 1.322 3.7888 -2.167 3.0031 12.1976 -9.59293 4.00117 3.6754 -2.122 2.122 4.0543 -1.74021 25.8581 3.3944 -1.9597 1.9598 3.91277 -3.24006 10.8018 12.2666 -0.2317 2.8221 -30.3408 -0.947491 3.49343 3.892 0 1.42109e-014 -22.0468 -0.505644 2.59519 3.4152 0 1.42109e-014 -11.0262 -0.127592 1.32201 12.147 0.0099 -2.2166 -30.3408 -0.947491 3.49343 3.6012 0 -1.42109e-014 -22.0468 -0.505644 2.59519 3.3073 -3.55271e-015 0 -11.0262 -0.127592 1.32201 10.9082 -0.2264 -4.7258 -29.8332 -0.898399 7.55596 4.1367 0 1.42109e-014 -22.5397 1.03292 -1.15601 2.5948 3.55271e-015 -1.42109e-014 -11.0262 -0.127587 1.32199 -6.1057 9.1105 0.7056 11.7198 0.156999 -2.73938 -12.655 -0.266 -2.6009 37.4787 42.4313 51.0987 -27.4047 0 -3.55271e-015 8.59295e-006 3.00861e-006 9.4372 -27.6145 0 1.77636e-015 4.93283 -13.5888 5.37067 -12.7755 0 -7.10543e-015 1.28339e-006 -5.93743e-007 -3.30325e-006 -3.614 0 3.55271e-015 2.78418e-005 -3.51962e-007 -1.40853e-005 -3.4598 0 0 1.46105e-005 -1.98612e-006 9.04626e-006 -3.7888 -2.167 3.0031 -17.8481 3.10914 -5.87485 -3.6754 -2.122 2.122 -1.02094 6.21607 -21.8032 -3.3944 -1.9597 1.9598 -2.77734 -0.353712 -6.50639 -12.2666 -0.2317 2.8221 1.28339e-006 -5.93743e-007 -3.30325e-006 -3.892 7.10543e-015 0 1.15472e-006 4.69151e-006 -4.37256e-006 -3.4152 0 -3.55271e-015 3.1763e-006 -5.68108e-006 -2.91377e-006 -12.147 0.0099 -2.2166 1.28339e-006 -5.93743e-007 -3.30325e-006 -3.6012 0 0 1.20609e-005 -3.51661e-007 -8.17393e-006 -3.3073 0 7.10543e-015 -3.38407e-006 -5.42504e-006 -8.15613e-006 -10.9082 -0.2264 -4.7258 1.28339e-006 -5.93743e-007 -3.30325e-006 -4.1367 0 -3.55271e-015 1.15472e-006 4.69151e-006 -4.37256e-006 -2.5948 0 0 3.1763e-006 -5.68108e-006 -2.91377e-006 -9.1245 -6.6564 -0.0554 7.9578 -49.3507 2.21847 -0.2447 -40.5954 -0.5145 -0.699702 35.0643 -9.70204 0.2447 -42.0479 -2.0602 -2.91754 1.83303 -2.32804 -0.3734 -10.4922 12.6407 -3.10342e-007 -0.109667 -9.6061e-006 9.1245 -6.6564 -0.0554 12.6215 -2.54177 13.4916 0.2447 -40.5954 -0.517 -0.674914 44.7528 -9.15443 -0.2447 -42.048 -2.0576 0.555177 15.0616 -1.82693 0.3734 -10.4922 12.6407 -2.04936 -49.6679 -1.22109 
